<svg width="64" height="46" viewBox="0 0 64 46" fill="none" xmlns="http://www.w3.org/2000/svg">
<path d="M23.9883 3.2569C23.9884 31.5857 38.6507 35.1268 48.8506 34.368C46.8874 35.4328 44.9285 36.3026 42.9857 36.9898C23.9119 35.3439 21.4384 15.7772 21.1834 7.05094C18.3274 7.05094 17.3584 4.77452 17.2309 3.63631H6.26604C5.75605 6.46919 3.41858 7.09309 2.31359 7.05094C2.31359 10.4656 1.3701 19.2521 9.32601 29.68C2.87804 23.0984 -0.795558 13.6355 0.146118 3.2569C0.146118 1.73929 1.5486 0.474612 2.82359 0.348145H21.4384C23.0959 0.348145 23.9883 2.4981 23.9883 3.2569Z" fill="#0F0C13"/>
<path d="M11.8168 31.9651C15.0271 34.6085 18.7585 36.6136 22.8409 37.7986C30.3633 31.9651 11.111 16.536 11.8168 31.9651Z" fill="#0F0C13"/>
<path d="M22.8409 37.7986C30.3633 31.9651 11.111 16.536 11.8168 31.9651C10.9472 31.249 10.1158 30.4861 9.32601 29.68C1.3701 19.2521 2.31359 10.4656 2.31359 7.05094C3.41858 7.09309 5.75605 6.46919 6.26604 3.63631H17.2309C17.3584 4.77452 18.3274 7.05094 21.1834 7.05094C21.4384 15.7772 23.9119 35.3439 42.9857 36.9898C35.8644 39.5088 28.9586 39.5745 22.8409 37.7986Z" fill="#D42177"/>
<path d="M60.0456 0.348145C68.4418 0.348145 62.4627 25.5368 51.5222 32.6608C47.616 33.1595 44.1849 32.8126 41.345 32.086C47.4513 24.2986 49.4867 7.6827 49.7412 0.348145H54.8934H60.0456Z" fill="#D42177"/>
<path d="M33.076 27.9538C43.7621 11.2887 36.2564 0.348145 42.7443 0.348145H44.7798C44.8646 6.43408 43.3295 20.9401 36.5108 30.2767C34.934 29.4707 33.7703 28.6209 33.076 27.9538Z" fill="#D42177"/>
<path d="M60.0456 0.348145C68.4418 0.348145 62.4627 25.5368 51.5222 32.6608C47.616 33.1595 44.1849 32.8126 41.345 32.086C47.4513 24.2986 49.4867 7.6827 49.7412 0.348145H54.8934H60.0456Z" fill="#D42177"/>
<path d="M33.076 27.9538C43.7621 11.2887 36.2564 0.348145 42.7443 0.348145H44.7798C44.8646 6.43408 43.3295 20.9401 36.5108 30.2767C34.934 29.4707 33.7703 28.6209 33.076 27.9538Z" fill="#D42177"/>
<path d="M36.5108 30.2767C43.3295 20.9401 44.8646 6.43408 44.7798 0.348145H49.7412C49.4867 7.6827 47.4513 24.2986 41.345 32.086C39.4626 31.6045 37.84 30.9562 36.5108 30.2767Z" fill="#0F0C13"/>
<path d="M36.5108 30.2767C43.3295 20.9401 44.8646 6.43408 44.7798 0.348145H49.7412C49.4867 7.6827 47.4513 24.2986 41.345 32.086C39.4626 31.6045 37.84 30.9562 36.5108 30.2767Z" fill="#0F0C13"/>
<path d="M57.8829 3.14688C61.8266 3.14688 62.3355 9.50764 57.7557 9.50764C53.4304 9.50764 53.5576 3.14688 57.8829 3.14688Z" fill="#0F0C13"/>
<path d="M57.8829 3.14688C61.8266 3.14688 62.3355 9.50764 57.7557 9.50764C53.4304 9.50764 53.5576 3.14688 57.8829 3.14688Z" fill="#0F0C13"/>
<path d="M1.0177 43.6013V19.6848C4.19808 32.2791 17.6829 39.4032 25.1886 40.2937V43.6013C24.985 45.2296 23.7468 45.4671 23.1531 45.3823H3.05314C2.13719 45.3823 1.0177 45.3823 1.0177 43.6013Z" fill="#D42177"/>
<path d="M62.5898 43.8557V19.9392C59.4095 32.5335 45.9247 39.6576 38.419 40.5481V43.8557C38.6225 45.484 39.8607 45.7215 40.4544 45.6367H60.5544C61.4704 45.6367 62.5898 45.6367 62.5898 43.8557Z" fill="#D42177"/>
</svg>
