<svg width="201" height="54" viewBox="0 0 201 54" fill="none" xmlns="http://www.w3.org/2000/svg">
<path d="M23.9883 7.25703C23.9884 35.5858 38.6507 39.1269 48.8506 38.3681C46.8874 39.4329 44.9285 40.3027 42.9857 40.99C23.9119 39.344 21.4384 19.7773 21.1834 11.0511C18.3274 11.0511 17.3584 8.77464 17.2309 7.63643H6.26604C5.75605 10.4693 3.41858 11.0932 2.31359 11.0511C2.31359 14.4657 1.3701 23.2522 9.32601 33.6801C2.87804 27.0986 -0.795558 17.6356 0.146118 7.25703C0.146118 5.73941 1.5486 4.47473 2.82359 4.34827H21.4384C23.0959 4.34827 23.9883 6.49822 23.9883 7.25703Z" fill="#0F0C13"/>
<path d="M11.8168 35.9652C15.0271 38.6086 18.7585 40.6137 22.8409 41.7987C30.3633 35.9652 11.111 20.5361 11.8168 35.9652Z" fill="#0F0C13"/>
<path d="M22.8409 41.7987C30.3633 35.9652 11.111 20.5361 11.8168 35.9652C10.9472 35.2492 10.1158 34.4863 9.32601 33.6801C1.3701 23.2522 2.31359 14.4657 2.31359 11.0511C3.41858 11.0932 5.75605 10.4693 6.26604 7.63643H17.2309C17.3584 8.77464 18.3274 11.0511 21.1834 11.0511C21.4384 19.7773 23.9119 39.344 42.9857 40.99C35.8644 43.5089 28.9586 43.5746 22.8409 41.7987Z" fill="#5700C2"/>
<path d="M60.0455 4.34827C68.4417 4.34827 62.4626 29.5369 51.5221 36.6609C47.6159 37.1596 44.1849 36.8127 41.3449 36.0862C47.4512 28.2988 49.4867 11.6828 49.7411 4.34827H54.8933H60.0455Z" fill="#5700C2"/>
<path d="M33.0759 31.954C43.762 15.2888 36.2563 4.34827 42.7443 4.34827H44.7797C44.8645 10.4342 43.3295 24.9402 36.5107 34.2768C34.934 33.4708 33.7702 32.621 33.0759 31.954Z" fill="#5700C2"/>
<path d="M60.0455 4.34827C68.4417 4.34827 62.4626 29.5369 51.5221 36.6609C47.6159 37.1596 44.1849 36.8127 41.3449 36.0862C47.4512 28.2988 49.4867 11.6828 49.7411 4.34827H54.8933H60.0455Z" fill="#5700C2"/>
<path d="M33.0759 31.954C43.762 15.2888 36.2563 4.34827 42.7443 4.34827H44.7797C44.8645 10.4342 43.3295 24.9402 36.5107 34.2768C34.934 33.4708 33.7702 32.621 33.0759 31.954Z" fill="#5700C2"/>
<path d="M36.5107 34.2768C43.3295 24.9402 44.8645 10.4342 44.7797 4.34827H49.7411C49.4867 11.6828 47.4512 28.2988 41.3449 36.0862C39.4626 35.6046 37.8399 34.9563 36.5107 34.2768Z" fill="#0F0C13"/>
<path d="M36.5107 34.2768C43.3295 24.9402 44.8645 10.4342 44.7797 4.34827H49.7411C49.4867 11.6828 47.4512 28.2988 41.3449 36.0862C39.4626 35.6046 37.8399 34.9563 36.5107 34.2768Z" fill="#0F0C13"/>
<path d="M57.8829 7.147C61.8266 7.147 62.3354 13.5078 57.7557 13.5078C53.4304 13.5078 53.5576 7.147 57.8829 7.147Z" fill="#0F0C13"/>
<path d="M57.8829 7.147C61.8266 7.147 62.3354 13.5078 57.7557 13.5078C53.4304 13.5078 53.5576 7.147 57.8829 7.147Z" fill="#0F0C13"/>
<path d="M1.01782 47.6014V23.685C4.1982 36.2793 17.683 43.4033 25.1887 44.2939V47.6014C24.9852 49.2298 23.7469 49.4673 23.1533 49.3825H3.05326C2.13732 49.3825 1.01782 49.3825 1.01782 47.6014Z" fill="#5700C2"/>
<path d="M62.5898 47.8558V23.9394C59.4095 36.5337 45.9247 43.6577 38.419 44.5483V47.8558C38.6225 49.4842 39.8607 49.7217 40.4544 49.6369H60.5544C61.4704 49.6369 62.5898 49.6369 62.5898 47.8558Z" fill="#5700C2"/>
<path d="M112.56 31.56C113.013 31.56 113.24 32.1733 113.24 33.4C113.24 34.0667 112.96 34.88 112.4 35.84C111.84 36.7733 111.107 37.64 110.2 38.44C109.32 39.2133 108.333 39.8533 107.24 40.36C106.147 40.8667 104.987 41.12 103.76 41.12C102.56 41.12 101.613 40.7333 100.92 39.96C100.253 39.16 99.92 38.28 99.92 37.32C99.92 36.3333 100.08 35.2267 100.4 34C100.72 32.7733 101.067 31.4933 101.44 30.16C102.453 26.6133 102.973 24.12 103 22.68C103 22.0667 102.92 21.6 102.76 21.28C102.6 20.9333 102.293 20.76 101.84 20.76C101.04 20.76 100.187 21.24 99.28 22.2C98.3733 23.16 97.52 24.3867 96.72 25.88C94.88 29.2933 93.9067 32.6267 93.8 35.88C93.8533 36.2533 93.9067 36.6267 93.96 37C94.0133 37.3733 94.04 37.7733 94.04 38.2C94.04 39.0533 93.6133 39.84 92.76 40.56C91.9333 41.2533 91 41.6 89.96 41.6C89.3467 41.6 88.8933 41.3067 88.6 40.72C88.3067 40.1067 88.16 39.36 88.16 38.48C88.16 37.6 88.36 36.4 88.76 34.88C89.16 33.36 89.6 31.7467 90.08 30.04C91.36 25.5333 92.0133 22.1733 92.04 19.96C92.04 18.84 91.8933 17.96 91.6 17.32C91.3333 16.68 90.8 16.36 90 16.36C88.56 16.36 87.1333 17.3867 85.72 19.44C84.3067 21.4933 83.04 24.68 81.92 29C81.6267 30.12 81.4 31.0933 81.24 31.92L81.2 32.68C81.7067 35.1333 81.96 36.7333 81.96 37.48C81.96 39.0267 81.4133 40.0667 80.32 40.6C79.8133 40.84 79.32 41.0667 78.84 41.28C78.3867 41.4933 77.8933 41.6 77.36 41.6C76.0267 41.6 75.36 40.3333 75.36 37.8C75.36 35.24 76.0667 30.2533 77.48 22.84C77.9867 20.1733 78.24 18.68 78.24 18.36C78.24 16.2 77.6933 15.12 76.6 15.12C76.2267 15.12 75.88 15.2267 75.56 15.44C75.2667 15.6533 74.96 15.88 74.64 16.12C74.3467 16.36 74.04 16.5867 73.72 16.8C73.4 17.0133 73.0267 17.12 72.6 17.12C72.2 17.12 72 16.76 72 16.04C72 14.5733 72.68 13.3733 74.04 12.44C75.3467 11.48 76.9333 11 78.8 11C81.2 11 82.6133 12.12 83.04 14.36C83.1467 15.0267 83.2267 15.7333 83.28 16.48C85.2533 12.7733 87.7467 10.92 90.76 10.92C94.04 10.92 95.92 12.4933 96.4 15.64C96.56 16.5467 96.6267 17.52 96.6 18.56V18.88C98.3333 16.48 100.387 15.28 102.76 15.28C106.12 15.28 107.8 17.3067 107.8 21.36C107.8 23.12 107.52 25.1867 106.96 27.56C106.427 29.9067 106.027 31.6 105.76 32.64C105.52 33.6533 105.4 34.44 105.4 35C105.4 36.0133 105.747 36.52 106.44 36.52C107.16 36.52 108.853 35.1333 111.52 32.36C112 31.8267 112.347 31.56 112.56 31.56ZM135.807 31.56C136.287 31.56 136.527 32.1733 136.527 33.4C136.527 34.0667 136.247 34.88 135.687 35.84C135.127 36.7733 134.394 37.64 133.487 38.44C132.607 39.2133 131.62 39.8533 130.527 40.36C129.434 40.8667 128.367 41.12 127.327 41.12C125.914 41.12 124.967 39.88 124.487 37.4C123.794 38.5467 122.887 39.4933 121.767 40.24C120.647 40.96 119.14 41.32 117.247 41.32C115.38 41.32 113.874 40.7333 112.727 39.56C111.58 38.3867 111.02 36.96 111.047 35.28C111.047 30.7467 112.554 27.1733 115.567 24.56C116.847 23.4667 118.034 22.7467 119.127 22.4C120.247 22.0533 121.42 21.88 122.647 21.88C123.874 21.88 124.874 22.0933 125.647 22.52C126.02 21.7467 126.447 21.36 126.927 21.36C127.86 21.36 128.74 21.7733 129.567 22.6C130.42 23.4 130.847 24.16 130.847 24.88C130.474 25.76 129.927 26.8133 129.207 28.04C128.994 29.2667 128.887 30.9867 128.887 33.2C128.887 35.4133 129.167 36.52 129.727 36.52C130.42 36.52 132.1 35.1333 134.767 32.36C135.247 31.8267 135.594 31.56 135.807 31.56ZM116.927 33.96C116.927 36.0133 117.687 37.04 119.207 37.04C120.834 37.0133 122.18 36.1467 123.247 34.44C123.62 33.8533 123.927 33.1333 124.167 32.28C124.167 29.2933 124.434 26.7333 124.967 24.6C122.807 25.0267 120.927 26.0667 119.327 27.72C117.727 29.3733 116.927 31.4533 116.927 33.96ZM139.848 21.04C140.808 21.04 141.715 21.96 142.568 23.8C143.821 22.4933 145.368 21.84 147.208 21.84C149.075 21.84 150.475 22.2533 151.408 23.08C152.341 23.88 152.808 25.0267 152.808 26.52C152.808 27.9867 152.608 29.48 152.208 31C151.835 32.52 151.555 33.6133 151.368 34.28C151.208 34.92 151.128 35.4533 151.128 35.88C151.128 36.3067 151.275 36.52 151.568 36.52C151.968 36.52 152.461 36.2667 153.048 35.76C153.635 35.2533 154.221 34.7067 154.808 34.12C155.395 33.5067 155.928 32.9467 156.408 32.44C156.915 31.9333 157.261 31.68 157.448 31.68C157.821 31.68 158.008 32.1333 158.008 33.04C158.008 34.9067 157.088 36.7067 155.248 38.44C152.155 40.2533 150.181 41.16 149.328 41.16C149.248 41.16 149.195 41.1467 149.168 41.12C147.035 41.12 145.968 39.4133 145.968 36C145.968 34.5333 146.101 33.1867 146.368 31.96C146.661 30.7333 146.875 29.84 147.008 29.28C147.141 28.72 147.208 28.1467 147.208 27.56C147.208 26.6 146.648 26.12 145.528 26.12C144.435 26.12 143.381 26.9467 142.368 28.6C141.381 30.2267 140.715 31.92 140.368 33.68V33.96C140.368 34.8667 140.501 35.8 140.768 36.76C141.061 37.72 141.208 38.3867 141.208 38.76C141.208 39.6667 140.075 40.56 137.808 41.44C137.461 41.5733 137.155 41.64 136.888 41.64C136.221 41.64 135.755 41.2933 135.488 40.6C135.248 39.9067 135.128 38.8267 135.128 37.36C135.128 33.5733 135.275 30.84 135.568 29.16C135.968 26.6533 136.875 24.32 138.288 22.16C138.768 21.4133 139.288 21.04 139.848 21.04ZM165.333 36.64C167.413 36.64 169.426 35.8133 171.373 34.16C172.093 33.5467 172.679 32.9867 173.133 32.48C173.586 31.9467 173.933 31.68 174.173 31.68C174.546 31.68 174.733 32.0533 174.733 32.8C174.733 33.5467 174.533 34.3867 174.133 35.32C173.733 36.2267 173.066 37.12 172.133 38C169.839 40.16 166.693 41.24 162.693 41.24C159.519 41.24 157.359 40.0933 156.213 37.8C155.813 37 155.613 35.8533 155.613 34.36C155.613 32.8667 155.906 31.32 156.493 29.72C157.079 28.0933 157.853 26.6933 158.813 25.52C159.799 24.3467 160.933 23.44 162.213 22.8C163.493 22.1333 164.853 21.8 166.293 21.8C167.759 21.8 168.879 22.16 169.653 22.88C170.453 23.6 170.853 24.5333 170.853 25.68C170.853 26.8267 170.559 27.7733 169.973 28.52C169.413 29.24 168.679 29.8533 167.773 30.36C166.866 30.84 165.853 31.28 164.733 31.68C163.639 32.0533 162.559 32.48 161.493 32.96V33.96C161.519 34.92 161.919 35.6 162.693 36C163.466 36.4 164.346 36.6133 165.333 36.64ZM164.653 25.36C163.266 25.36 162.306 26.9733 161.773 30.2C162.333 29.8267 162.853 29.4933 163.333 29.2C163.839 28.9067 164.279 28.6267 164.653 28.36C165.453 27.7733 165.866 27.1067 165.893 26.36C165.893 25.6933 165.479 25.36 164.653 25.36ZM174.491 38.84C174.198 38.12 173.985 37.2933 173.851 36.36C173.718 35.4 173.651 34.0667 173.651 32.36C173.651 30.6533 173.971 28.3467 174.611 25.44H172.811C172.491 25.44 172.331 25.3067 172.331 25.04C172.331 24.4 172.385 23.88 172.491 23.48C172.625 23.0533 172.918 22.5733 173.371 22.04H174.331C174.705 22.04 175.105 22.0267 175.531 22C176.811 17.8933 178.118 15.84 179.451 15.84C180.518 15.8667 181.265 16.5467 181.691 17.88C181.798 18.2533 181.918 18.6533 182.051 19.08L180.411 21.96C182.278 22.0133 183.451 22.04 183.931 22.04C184.438 22.04 184.705 22.0933 184.731 22.2C184.785 22.28 184.811 22.4133 184.811 22.6C184.811 23.08 184.691 23.68 184.451 24.4C184.238 25.12 183.985 25.4667 183.691 25.44L179.691 25.24C179.131 28.4933 178.851 31.1867 178.851 33.32C178.851 35.4533 179.158 36.52 179.771 36.52C180.278 36.52 181.198 36.1067 182.531 35.28C183.865 34.4267 184.825 33.6133 185.411 32.84C185.998 32.0667 186.478 31.68 186.851 31.68C187.225 31.68 187.411 32.1333 187.411 33.04C187.411 33.9467 187.091 34.88 186.451 35.84C185.811 36.7733 184.998 37.64 184.011 38.44C183.051 39.2133 181.971 39.8533 180.771 40.36C179.598 40.8667 178.571 41.12 177.691 41.12C176.811 41.12 176.131 40.92 175.651 40.52C175.198 40.0933 174.811 39.5333 174.491 38.84ZM187.187 38.84C186.893 38.12 186.68 37.2933 186.547 36.36C186.413 35.4 186.347 34.0667 186.347 32.36C186.347 30.6533 186.667 28.3467 187.307 25.44H185.507C185.187 25.44 185.027 25.3067 185.027 25.04C185.027 24.4 185.08 23.88 185.187 23.48C185.32 23.0533 185.613 22.5733 186.067 22.04H187.027C187.4 22.04 187.8 22.0267 188.227 22C189.507 17.8933 190.813 15.84 192.147 15.84C193.213 15.8667 193.96 16.5467 194.387 17.88C194.493 18.2533 194.613 18.6533 194.747 19.08L193.107 21.96C194.973 22.0133 196.147 22.04 196.627 22.04C197.133 22.04 197.4 22.0933 197.427 22.2C197.48 22.28 197.507 22.4133 197.507 22.6C197.507 23.08 197.387 23.68 197.147 24.4C196.933 25.12 196.68 25.4667 196.387 25.44L192.387 25.24C191.827 28.4933 191.547 31.1867 191.547 33.32C191.547 35.4533 191.853 36.52 192.467 36.52C192.973 36.52 193.893 36.1067 195.227 35.28C196.56 34.4267 197.52 33.6133 198.107 32.84C198.693 32.0667 199.173 31.68 199.547 31.68C199.92 31.68 200.107 32.1333 200.107 33.04C200.107 33.9467 199.787 34.88 199.147 35.84C198.507 36.7733 197.693 37.64 196.707 38.44C195.747 39.2133 194.667 39.8533 193.467 40.36C192.293 40.8667 191.267 41.12 190.387 41.12C189.507 41.12 188.827 40.92 188.347 40.52C187.893 40.0933 187.507 39.5333 187.187 38.84Z" fill="#0F0C13"/>
</svg>
