<svg width="705" height="179" viewBox="0 0 705 179" fill="none" xmlns="http://www.w3.org/2000/svg">
<path d="M364.904 119.296C366.872 119.296 367.856 121.811 367.856 126.84C367.856 129.573 366.708 132.908 364.412 136.844C362.116 140.671 359.109 144.224 355.392 147.504C351.784 150.675 347.739 153.299 343.256 155.376C338.773 157.453 334.4 158.492 330.136 158.492C324.341 158.492 320.46 153.408 318.492 143.24C315.649 147.941 311.932 151.823 307.34 154.884C302.748 157.836 296.571 159.312 288.808 159.312C281.155 159.312 274.977 156.907 270.276 152.096C265.575 147.285 263.279 141.436 263.388 134.548C263.388 115.961 269.565 101.311 281.92 90.596C287.168 86.1133 292.033 83.1613 296.516 81.74C301.108 80.3187 305.919 79.608 310.948 79.608C315.977 79.608 320.077 80.4827 323.248 82.232C324.779 79.0613 326.528 77.476 328.496 77.476C332.323 77.476 335.931 79.1707 339.32 82.56C342.819 85.84 344.568 88.956 344.568 91.908C343.037 95.516 340.796 99.8347 337.844 104.864C336.969 109.893 336.532 116.945 336.532 126.02C336.532 135.095 337.68 139.632 339.976 139.632C342.819 139.632 349.707 133.947 360.64 122.576C362.608 120.389 364.029 119.296 364.904 119.296ZM287.496 129.136C287.496 137.555 290.612 141.764 296.844 141.764C303.513 141.655 309.035 138.101 313.408 131.104C314.939 128.699 316.196 125.747 317.18 122.248C317.18 110.003 318.273 99.5067 320.46 90.76C311.604 92.5093 303.896 96.7733 297.336 103.552C290.776 110.331 287.496 118.859 287.496 129.136ZM381.473 76.164C385.409 76.164 389.127 79.936 392.625 87.48C397.764 82.1227 404.105 79.444 411.649 79.444C419.303 79.444 425.043 81.1387 428.869 84.528C432.696 87.808 434.609 92.5093 434.609 98.632C434.609 104.645 433.789 110.768 432.149 117C430.619 123.232 429.471 127.715 428.705 130.448C428.049 133.072 427.721 135.259 427.721 137.008C427.721 138.757 428.323 139.632 429.525 139.632C431.165 139.632 433.188 138.593 435.593 136.516C437.999 134.439 440.404 132.197 442.809 129.792C445.215 127.277 447.401 124.981 449.369 122.904C451.447 120.827 452.868 119.788 453.633 119.788C455.164 119.788 455.929 121.647 455.929 125.364C455.929 133.017 452.157 140.397 444.613 147.504C431.931 154.939 423.84 158.656 420.341 158.656C420.013 158.656 419.795 158.601 419.685 158.492C410.939 158.492 406.565 151.495 406.565 137.5C406.565 131.487 407.112 125.965 408.205 120.936C409.408 115.907 410.283 112.244 410.829 109.948C411.376 107.652 411.649 105.301 411.649 102.896C411.649 98.96 409.353 96.992 404.761 96.992C400.279 96.992 395.96 100.381 391.805 107.16C387.76 113.829 385.027 120.772 383.605 127.988V129.136C383.605 132.853 384.152 136.68 385.245 140.616C386.448 144.552 387.049 147.285 387.049 148.816C387.049 152.533 382.403 156.196 373.109 159.804C371.688 160.351 370.431 160.624 369.337 160.624C366.604 160.624 364.691 159.203 363.597 156.36C362.613 153.517 362.121 149.089 362.121 143.076C362.121 127.551 362.723 116.344 363.925 109.456C365.565 99.1787 369.283 89.612 375.077 80.756C377.045 77.6947 379.177 76.164 381.473 76.164ZM485.959 140.124C494.487 140.124 502.742 136.735 510.723 129.956C513.675 127.441 516.08 125.145 517.939 123.068C519.798 120.881 521.219 119.788 522.203 119.788C523.734 119.788 524.499 121.319 524.499 124.38C524.499 127.441 523.679 130.885 522.039 134.712C520.399 138.429 517.666 142.092 513.839 145.7C504.436 154.556 491.535 158.984 475.135 158.984C462.124 158.984 453.268 154.283 448.567 144.88C446.927 141.6 446.107 136.899 446.107 130.776C446.107 124.653 447.31 118.312 449.715 111.752C452.12 105.083 455.291 99.3427 459.227 94.532C463.272 89.7213 467.919 86.004 473.167 83.38C478.415 80.6467 483.991 79.28 489.895 79.28C495.908 79.28 500.5 80.756 503.671 83.708C506.951 86.66 508.591 90.4867 508.591 95.188C508.591 99.8893 507.388 103.771 504.983 106.832C502.687 109.784 499.68 112.299 495.963 114.376C492.246 116.344 488.091 118.148 483.499 119.788C479.016 121.319 474.588 123.068 470.215 125.036V129.136C470.324 133.072 471.964 135.86 475.135 137.5C478.306 139.14 481.914 140.015 485.959 140.124ZM483.171 93.876C477.486 93.876 473.55 100.491 471.363 113.72C473.659 112.189 475.791 110.823 477.759 109.62C479.836 108.417 481.64 107.269 483.171 106.176C486.451 103.771 488.146 101.037 488.255 97.976C488.255 95.2427 486.56 93.876 483.171 93.876ZM523.51 149.144C522.307 146.192 521.433 142.803 520.886 138.976C520.339 135.04 520.066 129.573 520.066 122.576C520.066 115.579 521.378 106.121 524.002 94.204H516.622C515.31 94.204 514.654 93.6573 514.654 92.564C514.654 89.94 514.873 87.808 515.31 86.168C515.857 84.4187 517.059 82.4507 518.918 80.264H522.854C524.385 80.264 526.025 80.2093 527.774 80.1C533.022 63.2627 538.379 54.844 543.846 54.844C548.219 54.9533 551.281 57.7413 553.03 63.208C553.467 64.7387 553.959 66.3787 554.506 68.128L547.782 79.936C555.435 80.1547 560.246 80.264 562.214 80.264C564.291 80.264 565.385 80.4827 565.494 80.92C565.713 81.248 565.822 81.7947 565.822 82.56C565.822 84.528 565.33 86.988 564.346 89.94C563.471 92.892 562.433 94.3133 561.23 94.204L544.83 93.384C542.534 106.723 541.386 117.765 541.386 126.512C541.386 135.259 542.643 139.632 545.158 139.632C547.235 139.632 551.007 137.937 556.474 134.548C561.941 131.049 565.877 127.715 568.282 124.544C570.687 121.373 572.655 119.788 574.186 119.788C575.717 119.788 576.482 121.647 576.482 125.364C576.482 129.081 575.17 132.908 572.546 136.844C569.922 140.671 566.587 144.224 562.542 147.504C558.606 150.675 554.178 153.299 549.258 155.376C544.447 157.453 540.238 158.492 536.63 158.492C533.022 158.492 530.234 157.672 528.266 156.032C526.407 154.283 524.822 151.987 523.51 149.144ZM575.561 149.144C574.358 146.192 573.483 142.803 572.937 138.976C572.39 135.04 572.117 129.573 572.117 122.576C572.117 115.579 573.429 106.121 576.053 94.204H568.673C567.361 94.204 566.705 93.6573 566.705 92.564C566.705 89.94 566.923 87.808 567.361 86.168C567.907 84.4187 569.11 82.4507 570.969 80.264H574.905C576.435 80.264 578.075 80.2093 579.825 80.1C585.073 63.2627 590.43 54.844 595.897 54.844C600.27 54.9533 603.331 57.7413 605.081 63.208C605.518 64.7387 606.01 66.3787 606.557 68.128L599.833 79.936C607.486 80.1547 612.297 80.264 614.265 80.264C616.342 80.264 617.435 80.4827 617.545 80.92C617.763 81.248 617.873 81.7947 617.873 82.56C617.873 84.528 617.381 86.988 616.397 89.94C615.522 92.892 614.483 94.3133 613.281 94.204L596.881 93.384C594.585 106.723 593.437 117.765 593.437 126.512C593.437 135.259 594.694 139.632 597.209 139.632C599.286 139.632 603.058 137.937 608.525 134.548C613.991 131.049 617.927 127.715 620.333 124.544C622.738 121.373 624.706 119.788 626.237 119.788C627.767 119.788 628.533 121.647 628.533 125.364C628.533 129.081 627.221 132.908 624.597 136.844C621.973 140.671 618.638 144.224 614.593 147.504C610.657 150.675 606.229 153.299 601.309 155.376C596.498 157.453 592.289 158.492 588.681 158.492C585.073 158.492 582.285 157.672 580.317 156.032C578.458 154.283 576.873 151.987 575.561 149.144Z" fill="black"/>
<path d="M353.784 123.573C355.704 123.573 356.664 126.027 356.664 130.933C356.664 133.6 355.544 136.853 353.304 140.693C351.064 144.427 348.131 147.893 344.504 151.093C340.984 154.187 337.037 156.747 332.664 158.773C328.291 160.8 324.024 161.813 319.864 161.813C314.211 161.813 310.424 156.853 308.504 146.933C305.731 151.52 302.104 155.307 297.624 158.293C293.144 161.173 287.117 162.613 279.544 162.613C272.077 162.613 266.051 160.267 261.464 155.573C256.877 150.88 254.637 145.173 254.744 138.453C254.744 120.32 260.771 106.027 272.824 95.5734C277.944 91.2 282.691 88.32 287.064 86.9334C291.544 85.5467 296.237 84.8534 301.144 84.8534C306.051 84.8534 310.051 85.7067 313.144 87.4134C314.637 84.32 316.344 82.7734 318.264 82.7734C321.997 82.7734 325.517 84.4267 328.824 87.7334C332.237 90.9334 333.944 93.9734 333.944 96.8534C332.451 100.373 330.264 104.587 327.384 109.493C326.531 114.4 326.104 121.28 326.104 130.133C326.104 138.987 327.224 143.413 329.464 143.413C332.237 143.413 338.957 137.867 349.624 126.773C351.544 124.64 352.931 123.573 353.784 123.573ZM278.264 133.173C278.264 141.387 281.304 145.493 287.384 145.493C293.891 145.387 299.277 141.92 303.544 135.093C305.037 132.747 306.264 129.867 307.224 126.453C307.224 114.507 308.291 104.267 310.424 95.7334C301.784 97.44 294.264 101.6 287.864 108.213C281.464 114.827 278.264 123.147 278.264 133.173ZM369.949 81.4934C373.789 81.4934 377.416 85.1734 380.829 92.5334C385.842 87.3067 392.029 84.6934 399.389 84.6934C406.856 84.6934 412.456 86.3467 416.189 89.6534C419.922 92.8534 421.789 97.44 421.789 103.413C421.789 109.28 420.989 115.253 419.389 121.333C417.896 127.413 416.776 131.787 416.029 134.453C415.389 137.013 415.069 139.147 415.069 140.853C415.069 142.56 415.656 143.413 416.829 143.413C418.429 143.413 420.402 142.4 422.749 140.373C425.096 138.347 427.442 136.16 429.789 133.813C432.136 131.36 434.269 129.12 436.189 127.093C438.216 125.067 439.602 124.053 440.349 124.053C441.842 124.053 442.589 125.867 442.589 129.493C442.589 136.96 438.909 144.16 431.549 151.093C419.176 158.347 411.282 161.973 407.869 161.973C407.549 161.973 407.336 161.92 407.229 161.813C398.696 161.813 394.429 154.987 394.429 141.333C394.429 135.467 394.962 130.08 396.029 125.173C397.202 120.267 398.056 116.693 398.589 114.453C399.122 112.213 399.389 109.92 399.389 107.573C399.389 103.733 397.149 101.813 392.669 101.813C388.296 101.813 384.082 105.12 380.029 111.733C376.082 118.24 373.416 125.013 372.029 132.053V133.173C372.029 136.8 372.562 140.533 373.629 144.373C374.802 148.213 375.389 150.88 375.389 152.373C375.389 156 370.856 159.573 361.789 163.093C360.402 163.627 359.176 163.893 358.109 163.893C355.442 163.893 353.576 162.507 352.509 159.733C351.549 156.96 351.069 152.64 351.069 146.773C351.069 131.627 351.656 120.693 352.829 113.973C354.429 103.947 358.056 94.6134 363.709 85.9734C365.629 82.9867 367.709 81.4934 369.949 81.4934ZM471.886 143.893C480.206 143.893 488.26 140.587 496.046 133.973C498.926 131.52 501.273 129.28 503.086 127.253C504.9 125.12 506.286 124.053 507.246 124.053C508.74 124.053 509.486 125.547 509.486 128.533C509.486 131.52 508.686 134.88 507.086 138.613C505.486 142.24 502.82 145.813 499.086 149.333C489.913 157.973 477.326 162.293 461.326 162.293C448.633 162.293 439.993 157.707 435.406 148.533C433.806 145.333 433.006 140.747 433.006 134.773C433.006 128.8 434.18 122.613 436.526 116.213C438.873 109.707 441.966 104.107 445.806 99.4134C449.753 94.72 454.286 91.0934 459.406 88.5334C464.526 85.8667 469.966 84.5334 475.726 84.5334C481.593 84.5334 486.073 85.9734 489.166 88.8534C492.366 91.7334 493.966 95.4667 493.966 100.053C493.966 104.64 492.793 108.427 490.446 111.413C488.206 114.293 485.273 116.747 481.646 118.773C478.02 120.693 473.966 122.453 469.486 124.053C465.113 125.547 460.793 127.253 456.526 129.173V133.173C456.633 137.013 458.233 139.733 461.326 141.333C464.42 142.933 467.94 143.787 471.886 143.893ZM469.166 98.7734C463.62 98.7734 459.78 105.227 457.646 118.133C459.886 116.64 461.966 115.307 463.886 114.133C465.913 112.96 467.673 111.84 469.166 110.773C472.366 108.427 474.02 105.76 474.126 102.773C474.126 100.107 472.473 98.7734 469.166 98.7734ZM508.521 152.693C507.348 149.813 506.495 146.507 505.961 142.773C505.428 138.933 505.161 133.6 505.161 126.773C505.161 119.947 506.441 110.72 509.001 99.0934H501.801C500.521 99.0934 499.881 98.56 499.881 97.4934C499.881 94.9334 500.095 92.8534 500.521 91.2534C501.055 89.5467 502.228 87.6267 504.041 85.4934H507.881C509.375 85.4934 510.975 85.44 512.681 85.3334C517.801 68.9067 523.028 60.6934 528.361 60.6934C532.628 60.8 535.615 63.52 537.321 68.8534C537.748 70.3467 538.228 71.9467 538.761 73.6534L532.201 85.1734C539.668 85.3867 544.361 85.4934 546.281 85.4934C548.308 85.4934 549.375 85.7067 549.481 86.1334C549.695 86.4534 549.801 86.9867 549.801 87.7334C549.801 89.6534 549.321 92.0534 548.361 94.9334C547.508 97.8134 546.495 99.2 545.321 99.0934L529.321 98.2934C527.081 111.307 525.961 122.08 525.961 130.613C525.961 139.147 527.188 143.413 529.641 143.413C531.668 143.413 535.348 141.76 540.681 138.453C546.015 135.04 549.855 131.787 552.201 128.693C554.548 125.6 556.468 124.053 557.961 124.053C559.455 124.053 560.201 125.867 560.201 129.493C560.201 133.12 558.921 136.853 556.361 140.693C553.801 144.427 550.548 147.893 546.601 151.093C542.761 154.187 538.441 156.747 533.641 158.773C528.948 160.8 524.841 161.813 521.321 161.813C517.801 161.813 515.081 161.013 513.161 159.413C511.348 157.707 509.801 155.467 508.521 152.693ZM559.303 152.693C558.129 149.813 557.276 146.507 556.743 142.773C556.209 138.933 555.943 133.6 555.943 126.773C555.943 119.947 557.223 110.72 559.783 99.0934H552.583C551.303 99.0934 550.663 98.56 550.663 97.4934C550.663 94.9334 550.876 92.8534 551.303 91.2534C551.836 89.5467 553.009 87.6267 554.823 85.4934H558.663C560.156 85.4934 561.756 85.44 563.463 85.3334C568.583 68.9067 573.809 60.6934 579.143 60.6934C583.409 60.8 586.396 63.52 588.103 68.8534C588.529 70.3467 589.009 71.9467 589.543 73.6534L582.983 85.1734C590.449 85.3867 595.143 85.4934 597.063 85.4934C599.089 85.4934 600.156 85.7067 600.263 86.1334C600.476 86.4534 600.583 86.9867 600.583 87.7334C600.583 89.6534 600.103 92.0534 599.143 94.9334C598.289 97.8134 597.276 99.2 596.103 99.0934L580.103 98.2934C577.863 111.307 576.743 122.08 576.743 130.613C576.743 139.147 577.969 143.413 580.423 143.413C582.449 143.413 586.129 141.76 591.463 138.453C596.796 135.04 600.636 131.787 602.983 128.693C605.329 125.6 607.249 124.053 608.743 124.053C610.236 124.053 610.983 125.867 610.983 129.493C610.983 133.12 609.703 136.853 607.143 140.693C604.583 144.427 601.329 147.893 597.383 151.093C593.543 154.187 589.223 156.747 584.423 158.773C579.729 160.8 575.623 161.813 572.103 161.813C568.583 161.813 565.863 161.013 563.943 159.413C562.129 157.707 560.583 155.467 559.303 152.693Z" fill="#3AAFA9"/>
<path d="M94.2826 11.4324C94.2827 122.774 151.911 136.692 192 133.71C184.284 137.895 176.585 141.314 168.949 144.015C93.982 137.545 84.2603 60.6416 83.258 26.3443C72.0331 26.3443 68.2246 17.3972 67.7235 12.9236H24.6277C22.6233 24.0578 13.4362 26.51 9.09321 26.3443C9.09321 39.765 5.38495 74.2991 36.6545 115.284C11.3117 89.4166 -3.12682 52.2238 0.574294 11.4324C0.574294 5.46769 6.08654 0.497063 11.0977 0H84.2603C90.7748 0 94.2826 8.45007 94.2826 11.4324Z" fill="black"/>
<path d="M46.4442 124.266C59.0618 134.655 73.7275 142.536 89.7726 147.193C119.338 124.266 43.6701 63.624 46.4442 124.266Z" fill="black"/>
<path d="M89.7726 147.193C119.338 124.266 43.6701 63.624 46.4442 124.266C43.0262 121.451 39.7586 118.453 36.6545 115.284C5.38495 74.2991 9.09321 39.765 9.09321 26.3443C13.4362 26.51 22.6233 24.0578 24.6277 12.9236H67.7235C68.2246 17.3972 72.0331 26.3443 83.258 26.3443C84.2603 60.6416 93.982 137.545 168.949 144.015C140.96 153.915 113.817 154.173 89.7726 147.193Z" fill="#3AAFA9"/>
<path d="M236 0C269 0 245.5 99 202.5 127C187.147 128.96 173.662 127.597 162.5 124.741C186.5 94.1338 194.5 28.8273 195.5 0H215.75H236Z" fill="#3AAFA9"/>
<path d="M130 108.5C172 43 142.5 0 168 0H176C176.333 23.9198 170.3 80.9335 143.5 117.63C137.303 114.462 132.729 111.122 130 108.5Z" fill="#3AAFA9"/>
<path d="M236 0C269 0 245.5 99 202.5 127C187.147 128.96 173.662 127.597 162.5 124.741C186.5 94.1338 194.5 28.8273 195.5 0H215.75H236Z" fill="#3AAFA9"/>
<path d="M130 108.5C172 43 142.5 0 168 0H176C176.333 23.9198 170.3 80.9335 143.5 117.63C137.303 114.462 132.729 111.122 130 108.5Z" fill="#3AAFA9"/>
<path d="M143.5 117.63C170.3 80.9335 176.333 23.9198 176 0H195.5C194.5 28.8273 186.5 94.1338 162.5 124.741C155.102 122.848 148.724 120.3 143.5 117.63Z" fill="black"/>
<path d="M227.5 11C243 11 245 36 227 36C210 36 210.5 11 227.5 11Z" fill="black"/>
<path d="M4 170V76C16.5 125.5 69.5 153.5 99 157V170C98.2 176.4 93.3333 177.333 91 177H12C8.4 177 4 177 4 170Z" fill="#3AAFA9"/>
<path d="M246 171V77C233.5 126.5 180.5 154.5 151 158V171C151.8 177.4 156.667 178.333 159 178H238C241.6 178 246 178 246 171Z" fill="#3AAFA9"/>
</svg>