<svg width="252" height="179" viewBox="0 0 252 179" fill="none" xmlns="http://www.w3.org/2000/svg">
<path d="M94.2826 11.4324C94.2827 122.774 151.911 136.692 192 133.71C184.284 137.895 176.585 141.314 168.949 144.015C93.982 137.545 84.2603 60.6416 83.258 26.3443C72.0331 26.3443 68.2246 17.3972 67.7235 12.9236H24.6277C22.6233 24.0578 13.4362 26.51 9.09321 26.3443C9.09321 39.765 5.38495 74.2991 36.6545 115.284C11.3117 89.4166 -3.12682 52.2238 0.574294 11.4324C0.574294 5.46769 6.08654 0.497063 11.0977 0H84.2603C90.7748 0 94.2826 8.45007 94.2826 11.4324Z" fill="black"/>
<path d="M46.4442 124.266C59.0618 134.655 73.7275 142.536 89.7726 147.193C119.338 124.266 43.6701 63.624 46.4442 124.266Z" fill="black"/>
<path d="M89.7726 147.193C119.338 124.266 43.6701 63.624 46.4442 124.266C43.0262 121.451 39.7586 118.453 36.6545 115.284C5.38495 74.2991 9.09321 39.765 9.09321 26.3443C13.4362 26.51 22.6233 24.0578 24.6277 12.9236H67.7235C68.2246 17.3972 72.0331 26.3443 83.258 26.3443C84.2603 60.6416 93.982 137.545 168.949 144.015C140.96 153.915 113.817 154.173 89.7726 147.193Z" fill="#3AAFA9"/>
<path d="M236 0C269 0 245.5 99 202.5 127C187.147 128.96 173.662 127.597 162.5 124.741C186.5 94.1338 194.5 28.8273 195.5 0H215.75H236Z" fill="#3AAFA9"/>
<path d="M130 108.5C172 43 142.5 0 168 0H176C176.333 23.9198 170.3 80.9335 143.5 117.63C137.303 114.462 132.729 111.122 130 108.5Z" fill="#3AAFA9"/>
<path d="M236 0C269 0 245.5 99 202.5 127C187.147 128.96 173.662 127.597 162.5 124.741C186.5 94.1338 194.5 28.8273 195.5 0H215.75H236Z" fill="#3AAFA9"/>
<path d="M130 108.5C172 43 142.5 0 168 0H176C176.333 23.9198 170.3 80.9335 143.5 117.63C137.303 114.462 132.729 111.122 130 108.5Z" fill="#3AAFA9"/>
<path d="M143.5 117.63C170.3 80.9335 176.333 23.9198 176 0H195.5C194.5 28.8273 186.5 94.1338 162.5 124.741C155.102 122.848 148.724 120.3 143.5 117.63Z" fill="black"/>
<path d="M227.5 11C243 11 245 36 227 36C210 36 210.5 11 227.5 11Z" fill="black"/>
<path d="M4 170V76C16.5 125.5 69.5 153.5 99 157V170C98.2 176.4 93.3333 177.333 91 177H12C8.4 177 4 177 4 170Z" fill="#3AAFA9"/>
<path d="M246 171V77C233.5 126.5 180.5 154.5 151 158V171C151.8 177.4 156.667 178.333 159 178H238C241.6 178 246 178 246 171Z" fill="#3AAFA9"/>
</svg>
